<?xml version="1.0" encoding="UTF-8"?>
<!DOCTYPE svg
PUBLIC "-//W3C//DTD SVG 1.1//EN"
       "http://www.w3.org/Graphics/SVG/1.1/DTD/svg11.dtd">
<svg viewBox="153 -21 1034 937" width="881px" height="958px" xmlns="http://www.w3.org/2000/svg" version="1.1">
   <line x1="881" y1="289" x2="871" y2="289" style="stroke:#cb0;stroke-width:1;"/>
   <line x1="874" y1="24" x2="884" y2="24" style="stroke:#cb0;stroke-width:1;"/>
   <line x1="871" y1="289" x2="874" y2="24" style="stroke:#cb0;stroke-width:1;"/>
   <line x1="873.5" y1="289" x2="877.03553390593" y2="292.53553390593" style="stroke:#cb0;stroke-width:2;"/>
   <line x1="873.5" y1="289" x2="877.03553390593" y2="285.46446609407" style="stroke:#cb0;stroke-width:2;"/>
   <line x1="879" y1="24" x2="875.46446609407" y2="27.535533905933" style="stroke:#cb0;stroke-width:2;"/>
   <line x1="879" y1="24" x2="875.46446609407" y2="20.464466094067" style="stroke:#cb0;stroke-width:2;"/>
   <line x1="881" y1="269" x2="871" y2="269" style="stroke:#c00;stroke-width:1;"/>
   <line x1="491" y1="265" x2="481" y2="265" style="stroke:#c00;stroke-width:1;"/>
   <line x1="871" y1="269" x2="491" y2="265" style="stroke:#c00;stroke-width:1;"/>
   <line x1="873.5" y1="269" x2="877.03553390593" y2="272.53553390593" style="stroke:#c00;stroke-width:2;"/>
   <line x1="873.5" y1="269" x2="877.03553390593" y2="265.46446609407" style="stroke:#c00;stroke-width:2;"/>
   <line x1="486" y1="265" x2="489.53553390593" y2="268.53553390593" style="stroke:#c00;stroke-width:2;"/>
   <line x1="486" y1="265" x2="489.53553390593" y2="261.46446609407" style="stroke:#c00;stroke-width:2;"/>
   <line x1="400" y1="767" x2="390" y2="767" style="stroke:#333;stroke-width:1;"/>
   <line x1="284" y1="732" x2="274" y2="732" style="stroke:#333;stroke-width:1;"/>
   <line x1="390" y1="767" x2="284" y2="732" style="stroke:#333;stroke-width:1;"/>
   <line x1="392.5" y1="767" x2="396.03553390593" y2="770.53553390593" style="stroke:#333;stroke-width:2;"/>
   <line x1="392.5" y1="767" x2="396.03553390593" y2="763.46446609407" style="stroke:#333;stroke-width:2;"/>
   <line x1="279" y1="732" x2="282.53553390593" y2="735.53553390593" style="stroke:#333;stroke-width:2;"/>
   <line x1="279" y1="732" x2="282.53553390593" y2="728.46446609407" style="stroke:#333;stroke-width:2;"/>
   <line x1="395" y1="305" x2="385" y2="305" style="stroke:#333;stroke-width:1;"/>
   <line x1="390" y1="447" x2="400" y2="447" style="stroke:#333;stroke-width:1;"/>
   <line x1="385" y1="305" x2="390" y2="447" style="stroke:#333;stroke-width:1;"/>
   <line x1="387.5" y1="305" x2="391.03553390593" y2="308.53553390593" style="stroke:#333;stroke-width:2;"/>
   <line x1="387.5" y1="305" x2="391.03553390593" y2="301.46446609407" style="stroke:#333;stroke-width:2;"/>
   <line x1="395" y1="447" x2="391.46446609407" y2="450.53553390593" style="stroke:#333;stroke-width:2;"/>
   <line x1="395" y1="447" x2="391.46446609407" y2="443.46446609407" style="stroke:#333;stroke-width:2;"/>
   <line x1="481" y1="325" x2="491" y2="325" style="stroke:#0bf;stroke-width:1;"/>
   <line x1="631" y1="322" x2="641" y2="322" style="stroke:#0bf;stroke-width:1;"/>
   <line x1="491" y1="325" x2="631" y2="322" style="stroke:#0bf;stroke-width:1;"/>
   <line x1="488.5" y1="325" x2="484.96446609407" y2="328.53553390593" style="stroke:#0bf;stroke-width:2;"/>
   <line x1="488.5" y1="325" x2="484.96446609407" y2="321.46446609407" style="stroke:#0bf;stroke-width:2;"/>
   <line x1="636" y1="322" x2="632.46446609407" y2="325.53553390593" style="stroke:#0bf;stroke-width:2;"/>
   <line x1="636" y1="322" x2="632.46446609407" y2="318.46446609407" style="stroke:#0bf;stroke-width:2;"/>
   <rect width="133" height="20" x="881" y="119" style="fill:#007;stroke:black;"/>
   <text width="133" height="20" x="886" y="133" style="fill:#fff;" font-family="Arial" font-size="16px"> anexos</text>
   <rect width="133" height="20" x="881" y="139" style="fill:#aea;stroke:black;"/>
   <text width="133" height="20" x="886" y="153" style="fill:black;" font-family="Arial" font-size="16px">id</text>
   <rect width="133" height="20" x="881" y="159" style="fill:none;stroke:black;"/>
   <text width="133" height="20" x="886" y="173" style="fill:black;" font-family="Arial" font-size="16px">path</text>
   <rect width="133" height="20" x="881" y="179" style="fill:none;stroke:black;"/>
   <text width="133" height="20" x="886" y="193" style="fill:black;" font-family="Arial" font-size="16px">mimeType</text>
   <rect width="133" height="20" x="881" y="199" style="fill:none;stroke:black;"/>
   <text width="133" height="20" x="886" y="213" style="fill:black;" font-family="Arial" font-size="16px">name</text>
   <rect width="133" height="20" x="881" y="219" style="fill:none;stroke:black;"/>
   <text width="133" height="20" x="886" y="233" style="fill:black;" font-family="Arial" font-size="16px">extension</text>
   <rect width="133" height="20" x="881" y="239" style="fill:none;stroke:black;"/>
   <text width="133" height="20" x="886" y="253" style="fill:black;" font-family="Arial" font-size="16px">size</text>
   <rect width="133" height="20" x="881" y="259" style="fill:none;stroke:black;"/>
   <text width="133" height="20" x="886" y="273" style="fill:black;" font-family="Arial" font-size="16px">processo_id</text>
   <rect width="133" height="20" x="881" y="279" style="fill:none;stroke:black;"/>
   <text width="133" height="20" x="886" y="293" style="fill:black;" font-family="Arial" font-size="16px">documentotipo_id</text>
   <rect width="133" height="20" x="881" y="299" style="fill:none;stroke:black;"/>
   <text width="133" height="20" x="886" y="313" style="fill:black;" font-family="Arial" font-size="16px">created_at</text>
   <rect width="133" height="20" x="881" y="319" style="fill:none;stroke:black;"/>
   <text width="133" height="20" x="886" y="333" style="fill:black;" font-family="Arial" font-size="16px">updated_at</text>
   <rect width="139" height="20" x="400" y="417" style="fill:#007;stroke:black;"/>
   <text width="139" height="20" x="405" y="431" style="fill:#fff;" font-family="Arial" font-size="16px"> clientes</text>
   <rect width="139" height="20" x="400" y="437" style="fill:#aea;stroke:black;"/>
   <text width="139" height="20" x="405" y="451" style="fill:black;" font-family="Arial" font-size="16px">id</text>
   <rect width="139" height="20" x="400" y="457" style="fill:none;stroke:black;"/>
   <text width="139" height="20" x="405" y="471" style="fill:black;" font-family="Arial" font-size="16px">nome</text>
   <rect width="139" height="20" x="400" y="477" style="fill:none;stroke:black;"/>
   <text width="139" height="20" x="405" y="491" style="fill:black;" font-family="Arial" font-size="16px">data_nascimento</text>
   <rect width="139" height="20" x="400" y="497" style="fill:none;stroke:black;"/>
   <text width="139" height="20" x="405" y="511" style="fill:black;" font-family="Arial" font-size="16px">rg</text>
   <rect width="139" height="20" x="400" y="517" style="fill:none;stroke:black;"/>
   <text width="139" height="20" x="405" y="531" style="fill:black;" font-family="Arial" font-size="16px">nome_empresarial</text>
   <rect width="139" height="20" x="400" y="537" style="fill:none;stroke:black;"/>
   <text width="139" height="20" x="405" y="551" style="fill:black;" font-family="Arial" font-size="16px">ie</text>
   <rect width="139" height="20" x="400" y="557" style="fill:none;stroke:black;"/>
   <text width="139" height="20" x="405" y="571" style="fill:black;" font-family="Arial" font-size="16px">im</text>
   <rect width="139" height="20" x="400" y="577" style="fill:none;stroke:black;"/>
   <text width="139" height="20" x="405" y="591" style="fill:black;" font-family="Arial" font-size="16px">personalidade</text>
   <rect width="139" height="20" x="400" y="597" style="fill:none;stroke:black;"/>
   <text width="139" height="20" x="405" y="611" style="fill:black;" font-family="Arial" font-size="16px">cpf_cnpj</text>
   <rect width="139" height="20" x="400" y="617" style="fill:none;stroke:black;"/>
   <text width="139" height="20" x="405" y="631" style="fill:black;" font-family="Arial" font-size="16px">telefone_1</text>
   <rect width="139" height="20" x="400" y="637" style="fill:none;stroke:black;"/>
   <text width="139" height="20" x="405" y="651" style="fill:black;" font-family="Arial" font-size="16px">telefone_2</text>
   <rect width="139" height="20" x="400" y="657" style="fill:none;stroke:black;"/>
   <text width="139" height="20" x="405" y="671" style="fill:black;" font-family="Arial" font-size="16px">telefone_3</text>
   <rect width="139" height="20" x="400" y="677" style="fill:none;stroke:black;"/>
   <text width="139" height="20" x="405" y="691" style="fill:black;" font-family="Arial" font-size="16px">telefone_4</text>
   <rect width="139" height="20" x="400" y="697" style="fill:none;stroke:black;"/>
   <text width="139" height="20" x="405" y="711" style="fill:black;" font-family="Arial" font-size="16px">telefone_5</text>
   <rect width="139" height="20" x="400" y="717" style="fill:none;stroke:black;"/>
   <text width="139" height="20" x="405" y="731" style="fill:black;" font-family="Arial" font-size="16px">email</text>
   <rect width="139" height="20" x="400" y="737" style="fill:none;stroke:black;"/>
   <text width="139" height="20" x="405" y="751" style="fill:black;" font-family="Arial" font-size="16px">site</text>
   <rect width="139" height="20" x="400" y="757" style="fill:none;stroke:black;"/>
   <text width="139" height="20" x="405" y="771" style="fill:black;" font-family="Arial" font-size="16px">endereco_id</text>
   <rect width="139" height="20" x="400" y="777" style="fill:none;stroke:black;"/>
   <text width="139" height="20" x="405" y="791" style="fill:black;" font-family="Arial" font-size="16px">created_at</text>
   <rect width="139" height="20" x="400" y="797" style="fill:none;stroke:black;"/>
   <text width="139" height="20" x="405" y="811" style="fill:black;" font-family="Arial" font-size="16px">updated_at</text>
   <rect width="135" height="20" x="884" y="-6" style="fill:#007;stroke:black;"/>
   <text width="135" height="20" x="889" y="8" style="fill:#fff;" font-family="Arial" font-size="16px"> documentos_tipos</text>
   <rect width="135" height="20" x="884" y="14" style="fill:#aea;stroke:black;"/>
   <text width="135" height="20" x="889" y="28" style="fill:black;" font-family="Arial" font-size="16px">id</text>
   <rect width="135" height="20" x="884" y="34" style="fill:none;stroke:black;"/>
   <text width="135" height="20" x="889" y="48" style="fill:black;" font-family="Arial" font-size="16px">nome</text>
   <rect width="135" height="20" x="884" y="54" style="fill:none;stroke:black;"/>
   <text width="135" height="20" x="889" y="68" style="fill:black;" font-family="Arial" font-size="16px">created_at</text>
   <rect width="135" height="20" x="884" y="74" style="fill:none;stroke:black;"/>
   <text width="135" height="20" x="889" y="88" style="fill:black;" font-family="Arial" font-size="16px">updated_at</text>
   <rect width="106" height="20" x="168" y="702" style="fill:#007;stroke:black;"/>
   <text width="106" height="20" x="173" y="716" style="fill:#fff;" font-family="Arial" font-size="16px"> enderecos</text>
   <rect width="106" height="20" x="168" y="722" style="fill:#aea;stroke:black;"/>
   <text width="106" height="20" x="173" y="736" style="fill:black;" font-family="Arial" font-size="16px">id</text>
   <rect width="106" height="20" x="168" y="742" style="fill:none;stroke:black;"/>
   <text width="106" height="20" x="173" y="756" style="fill:black;" font-family="Arial" font-size="16px">logradouro</text>
   <rect width="106" height="20" x="168" y="762" style="fill:none;stroke:black;"/>
   <text width="106" height="20" x="173" y="776" style="fill:black;" font-family="Arial" font-size="16px">numero</text>
   <rect width="106" height="20" x="168" y="782" style="fill:none;stroke:black;"/>
   <text width="106" height="20" x="173" y="796" style="fill:black;" font-family="Arial" font-size="16px">complemento</text>
   <rect width="106" height="20" x="168" y="802" style="fill:none;stroke:black;"/>
   <text width="106" height="20" x="173" y="816" style="fill:black;" font-family="Arial" font-size="16px">cep</text>
   <rect width="106" height="20" x="168" y="822" style="fill:none;stroke:black;"/>
   <text width="106" height="20" x="173" y="836" style="fill:black;" font-family="Arial" font-size="16px">bairro</text>
   <rect width="106" height="20" x="168" y="842" style="fill:none;stroke:black;"/>
   <text width="106" height="20" x="173" y="856" style="fill:black;" font-family="Arial" font-size="16px">municipio</text>
   <rect width="106" height="20" x="168" y="862" style="fill:none;stroke:black;"/>
   <text width="106" height="20" x="173" y="876" style="fill:black;" font-family="Arial" font-size="16px">uf</text>
   <rect width="106" height="20" x="168" y="882" style="fill:none;stroke:black;"/>
   <text width="106" height="20" x="173" y="896" style="fill:black;" font-family="Arial" font-size="16px">created_at</text>
   <rect width="106" height="20" x="168" y="902" style="fill:none;stroke:black;"/>
   <text width="106" height="20" x="173" y="916" style="fill:black;" font-family="Arial" font-size="16px">updated_at</text>
   <rect width="83" height="20" x="652" y="97" style="fill:#007;stroke:black;"/>
   <text width="83" height="20" x="657" y="111" style="fill:#fff;" font-family="Arial" font-size="16px"> migrations</text>
   <rect width="83" height="20" x="652" y="117" style="fill:#aea;stroke:black;"/>
   <text width="83" height="20" x="657" y="131" style="fill:black;" font-family="Arial" font-size="16px">id</text>
   <rect width="83" height="20" x="652" y="137" style="fill:none;stroke:black;"/>
   <text width="83" height="20" x="657" y="151" style="fill:black;" font-family="Arial" font-size="16px">migration</text>
   <rect width="83" height="20" x="652" y="157" style="fill:none;stroke:black;"/>
   <text width="83" height="20" x="657" y="171" style="fill:black;" font-family="Arial" font-size="16px">batch</text>
   <rect width="123" height="20" x="484" y="14" style="fill:#007;stroke:black;"/>
   <text width="123" height="20" x="489" y="28" style="fill:#fff;" font-family="Arial" font-size="16px"> password_resets</text>
   <rect width="123" height="20" x="484" y="34" style="fill:none;stroke:black;"/>
   <text width="123" height="20" x="489" y="48" style="fill:black;" font-family="Arial" font-size="16px">email</text>
   <rect width="123" height="20" x="484" y="54" style="fill:none;stroke:black;"/>
   <text width="123" height="20" x="489" y="68" style="fill:black;" font-family="Arial" font-size="16px">token</text>
   <rect width="123" height="20" x="484" y="74" style="fill:none;stroke:black;"/>
   <text width="123" height="20" x="489" y="88" style="fill:black;" font-family="Arial" font-size="16px">created_at</text>
   <rect width="86" height="20" x="395" y="235" style="fill:#007;stroke:black;"/>
   <text width="86" height="20" x="400" y="249" style="fill:#fff;" font-family="Arial" font-size="16px"> processos</text>
   <rect width="86" height="20" x="395" y="255" style="fill:#aea;stroke:black;"/>
   <text width="86" height="20" x="400" y="269" style="fill:black;" font-family="Arial" font-size="16px">id</text>
   <rect width="86" height="20" x="395" y="275" style="fill:none;stroke:black;"/>
   <text width="86" height="20" x="400" y="289" style="fill:black;" font-family="Arial" font-size="16px">num</text>
   <rect width="86" height="20" x="395" y="295" style="fill:none;stroke:black;"/>
   <text width="86" height="20" x="400" y="309" style="fill:black;" font-family="Arial" font-size="16px">cliente_id</text>
   <rect width="86" height="20" x="395" y="315" style="fill:none;stroke:black;"/>
   <text width="86" height="20" x="400" y="329" style="fill:black;" font-family="Arial" font-size="16px">usuario_id</text>
   <rect width="86" height="20" x="395" y="335" style="fill:none;stroke:black;"/>
   <text width="86" height="20" x="400" y="349" style="fill:black;" font-family="Arial" font-size="16px">created_at</text>
   <rect width="86" height="20" x="395" y="355" style="fill:none;stroke:black;"/>
   <text width="86" height="20" x="400" y="369" style="fill:black;" font-family="Arial" font-size="16px">updated_at</text>
   <rect width="127" height="20" x="641" y="292" style="fill:#007;stroke:black;"/>
   <text width="127" height="20" x="646" y="306" style="fill:#fff;" font-family="Arial" font-size="16px"> users</text>
   <rect width="127" height="20" x="641" y="312" style="fill:#aea;stroke:black;"/>
   <text width="127" height="20" x="646" y="326" style="fill:black;" font-family="Arial" font-size="16px">id</text>
   <rect width="127" height="20" x="641" y="332" style="fill:none;stroke:black;"/>
   <text width="127" height="20" x="646" y="346" style="fill:black;" font-family="Arial" font-size="16px">name</text>
   <rect width="127" height="20" x="641" y="352" style="fill:none;stroke:black;"/>
   <text width="127" height="20" x="646" y="366" style="fill:black;" font-family="Arial" font-size="16px">email</text>
   <rect width="127" height="20" x="641" y="372" style="fill:none;stroke:black;"/>
   <text width="127" height="20" x="646" y="386" style="fill:black;" font-family="Arial" font-size="16px">password</text>
   <rect width="127" height="20" x="641" y="392" style="fill:none;stroke:black;"/>
   <text width="127" height="20" x="646" y="406" style="fill:black;" font-family="Arial" font-size="16px">remember_token</text>
   <rect width="127" height="20" x="641" y="412" style="fill:none;stroke:black;"/>
   <text width="127" height="20" x="646" y="426" style="fill:black;" font-family="Arial" font-size="16px">created_at</text>
   <rect width="127" height="20" x="641" y="432" style="fill:none;stroke:black;"/>
   <text width="127" height="20" x="646" y="446" style="fill:black;" font-family="Arial" font-size="16px">updated_at</text>
</svg>
